<svg xmlns="http://www.w3.org/2000/svg" xmlns:xlink="http://www.w3.org/1999/xlink" width="250" zoomAndPan="magnify" viewBox="0 0 187.5 187.499992" height="250" preserveAspectRatio="xMidYMid meet" version="1.0"><defs><clipPath id="070d0f52ee"><path d="M 10.964844 76.8125 L 34.152344 76.8125 L 34.152344 110.472656 L 10.964844 110.472656 Z M 10.964844 76.8125 " clip-rule="nonzero"/></clipPath><clipPath id="94e30e1b24"><path d="M 10.964844 76.8125 L 34.152344 76.8125 L 34.152344 110.472656 L 10.964844 110.472656 Z M 10.964844 76.8125 " clip-rule="nonzero"/></clipPath><clipPath id="ad81b3197e"><path d="M 34.40625 81 L 57.59375 81 L 57.59375 111.339844 L 34.40625 111.339844 Z M 34.40625 81 " clip-rule="nonzero"/></clipPath><clipPath id="9b1abcb67f"><path d="M 34.40625 77.679688 L 57.59375 77.679688 L 57.59375 108 L 34.40625 108 Z M 34.40625 77.679688 " clip-rule="nonzero"/></clipPath><clipPath id="001795ad73"><path d="M 59 79 L 82 79 L 82 109.601562 L 59 109.601562 Z M 59 79 " clip-rule="nonzero"/></clipPath><clipPath id="24020137ed"><path d="M 57.941406 75.941406 L 82.625 75.941406 L 82.625 109.601562 L 57.941406 109.601562 Z M 57.941406 75.941406 " clip-rule="nonzero"/></clipPath><clipPath id="b59086d246"><path d="M 57.941406 75.941406 L 82.625 75.941406 L 82.625 109.601562 L 57.941406 109.601562 Z M 57.941406 75.941406 " clip-rule="nonzero"/></clipPath><clipPath id="f2b42b4846"><path d="M 83 80 L 106.75 80 L 106.75 110 L 83 110 Z M 83 80 " clip-rule="nonzero"/></clipPath><clipPath id="cb28a57674"><path d="M 82.8125 76.8125 L 106.75 76.8125 L 106.75 110.472656 L 82.8125 110.472656 Z M 82.8125 76.8125 " clip-rule="nonzero"/></clipPath><clipPath id="93f6fdafa5"><path d="M 82.8125 76.8125 L 106.75 76.8125 L 106.75 110.472656 L 82.8125 110.472656 Z M 82.8125 76.8125 " clip-rule="nonzero"/></clipPath><clipPath id="c82561239d"><path d="M 101.410156 76.8125 L 126.09375 76.8125 L 126.09375 110.472656 L 101.410156 110.472656 Z M 101.410156 76.8125 " clip-rule="nonzero"/></clipPath><clipPath id="c8e4bd8f54"><path d="M 101.410156 76.8125 L 126.09375 76.8125 L 126.09375 110.472656 L 101.410156 110.472656 Z M 101.410156 76.8125 " clip-rule="nonzero"/></clipPath><clipPath id="986352a042"><path d="M 126.363281 75.941406 L 150.296875 75.941406 L 150.296875 109.601562 L 126.363281 109.601562 Z M 126.363281 75.941406 " clip-rule="nonzero"/></clipPath><clipPath id="e16b5362bd"><path d="M 126.363281 75.941406 L 150.296875 75.941406 L 150.296875 109.601562 L 126.363281 109.601562 Z M 126.363281 75.941406 " clip-rule="nonzero"/></clipPath><clipPath id="030c326c2e"><path d="M 151 80 L 175.871094 80 L 175.871094 110 L 151 110 Z M 151 80 " clip-rule="nonzero"/></clipPath><clipPath id="e1aefc315a"><path d="M 150.4375 76.8125 L 175.871094 76.8125 L 175.871094 110.472656 L 150.4375 110.472656 Z M 150.4375 76.8125 " clip-rule="nonzero"/></clipPath><clipPath id="6ec2270548"><path d="M 150.4375 77 L 175.871094 77 L 175.871094 108 L 150.4375 108 Z M 150.4375 77 " clip-rule="nonzero"/></clipPath><clipPath id="5635627ae1"><path d="M 150.4375 76.8125 L 175.871094 76.8125 L 175.871094 110.472656 L 150.4375 110.472656 Z M 150.4375 76.8125 " clip-rule="nonzero"/></clipPath></defs><path fill="#1d2c5e" d="M 12.304688 83.574219 C 13.550781 83.15625 14.726562 82.769531 15.820312 82.421875 C 16.925781 82.066406 18.082031 81.730469 19.296875 81.414062 C 20.515625 81.097656 21.679688 80.855469 22.796875 80.660156 C 23.648438 80.519531 24.527344 80.445312 25.421875 80.445312 C 26.921875 80.445312 27.894531 80.488281 28.359375 80.570312 C 29.058594 80.703125 29.726562 80.925781 30.347656 81.222656 C 30.976562 81.527344 31.53125 81.921875 32.019531 82.421875 C 32.503906 82.933594 32.910156 83.523438 33.214844 84.203125 C 33.335938 84.492188 33.40625 84.785156 33.40625 85.089844 C 33.40625 86.253906 32.769531 87.679688 31.511719 89.378906 C 30.246094 91.078125 28.976562 92.566406 27.699219 93.828125 C 26.433594 95.09375 25.480469 96 24.851562 96.546875 L 27.628906 106.355469 L 23.585938 109.289062 L 16.480469 88.921875 C 16.460938 88.921875 16.371094 89.011719 16.1875 89.214844 C 16.015625 89.410156 15.78125 89.664062 15.496094 89.980469 C 15.214844 90.296875 15.042969 90.488281 14.972656 90.558594 C 14.941406 90.558594 14.839844 90.335938 14.667969 89.898438 C 14.496094 89.449219 14.269531 88.828125 13.988281 88.035156 C 13.703125 87.238281 13.378906 86.363281 13.023438 85.394531 C 12.671875 84.429688 12.425781 83.816406 12.304688 83.574219 Z M 22.308594 87.890625 L 23.585938 92.476562 C 24.226562 91.824219 25.015625 90.925781 25.96875 89.796875 C 26.910156 88.675781 27.386719 87.851562 27.386719 87.34375 C 27.386719 87.148438 27.304688 87.035156 27.144531 87.003906 C 26.675781 86.902344 26.222656 86.851562 25.765625 86.851562 C 24.398438 86.851562 23.25 87.199219 22.308594 87.890625 Z M 22.308594 87.890625 " fill-opacity="1" fill-rule="nonzero"/><g clip-path="url(#070d0f52ee)"><path stroke-linecap="butt" transform="matrix(0.101355, 0, 0, 0.101846, -1711.717798, -2962.632125)" fill="none" stroke-linejoin="miter" d="M 17009.695137 29909.806801 C 17021.989451 29905.702888 17033.590043 29901.90581 17044.381291 29898.492276 C 17055.288159 29895.002032 17066.69605 29891.70356 17078.682043 29888.59686 C 17090.706576 29885.49016 17102.191547 29883.112192 17113.214036 29881.194476 C 17121.615794 29879.81372 17130.287332 29879.084988 17139.113031 29879.084988 C 17153.912457 29879.084988 17163.50896 29879.506886 17168.09524 29880.312326 C 17174.993931 29881.616373 17181.5843 29883.80257 17187.712187 29886.717498 C 17193.917155 29889.709136 17199.389859 29893.582922 17204.20738 29898.492276 C 17208.986362 29903.516692 17212.994539 29909.308195 17216.000673 29915.981847 C 17217.195418 29918.820067 17217.889141 29921.696641 17217.889141 29924.688278 C 17217.889141 29936.117867 17211.607093 29950.117195 17199.197158 29966.801325 C 17186.710143 29983.485456 17174.184587 29998.098453 17161.581951 30010.4869 C 17149.094936 30022.9137 17139.691134 30031.811903 17133.486166 30037.181509 L 17160.888228 30133.489214 L 17120.999151 30162.293311 L 17050.89458 29962.31387 C 17050.701879 29962.31387 17049.815455 29963.196019 17048.004067 29965.190444 C 17046.308299 29967.10816 17043.995889 29969.601191 17041.182457 29972.707891 C 17038.407564 29975.814591 17036.711797 29977.693953 17036.018074 29978.384331 C 17035.709752 29978.384331 17034.707708 29976.198135 17033.01194 29971.90245 C 17031.316173 29967.491703 17029.080843 29961.393366 17026.30595 29953.607438 C 17023.492518 29945.783156 17020.293684 29937.191788 17016.786528 29927.679916 C 17013.317913 29918.206398 17010.889882 29912.184769 17009.695137 29909.806801 Z M 17108.396515 29952.188328 L 17120.999151 29997.216304 C 17127.319739 29990.811132 17135.104854 29981.989637 17144.508655 29970.905238 C 17153.796837 29959.897547 17158.498737 29951.804785 17158.498737 29946.818723 C 17158.498737 29944.901007 17157.689394 29943.788731 17156.109247 29943.481897 C 17151.484426 29942.484684 17147.013766 29941.986078 17142.504566 29941.986078 C 17129.015507 29941.986078 17117.684696 29945.399613 17108.396515 29952.188328 Z M 17108.396515 29952.188328 " stroke="#1d2c5e" stroke-width="14.58" stroke-opacity="1" stroke-miterlimit="2"/></g><path fill="#ffcb05" d="M 12.011719 80.679688 C 13.257812 80.261719 14.433594 79.875 15.527344 79.53125 C 16.632812 79.171875 17.789062 78.835938 19.003906 78.523438 C 20.222656 78.207031 21.386719 77.960938 22.5 77.769531 C 23.351562 77.625 24.234375 77.554688 25.125 77.554688 C 26.625 77.554688 27.601562 77.59375 28.066406 77.675781 C 28.765625 77.808594 29.433594 78.03125 30.050781 78.328125 C 30.679688 78.632812 31.238281 79.03125 31.726562 79.53125 C 32.210938 80.039062 32.617188 80.628906 32.921875 81.3125 C 33.042969 81.597656 33.113281 81.894531 33.113281 82.199219 C 33.113281 83.359375 32.476562 84.785156 31.21875 86.488281 C 29.949219 88.1875 28.683594 89.675781 27.40625 90.9375 C 26.140625 92.199219 25.1875 93.105469 24.558594 93.65625 L 27.335938 103.464844 L 23.292969 106.398438 L 16.1875 86.027344 C 16.167969 86.027344 16.074219 86.121094 15.894531 86.324219 C 15.722656 86.515625 15.488281 86.773438 15.203125 87.085938 C 14.921875 87.402344 14.746094 87.597656 14.675781 87.667969 C 14.644531 87.667969 14.546875 87.445312 14.371094 87.003906 C 14.199219 86.558594 13.976562 85.9375 13.695312 85.140625 C 13.410156 84.347656 13.085938 83.472656 12.730469 82.503906 C 12.375 81.535156 12.132812 80.925781 12.011719 80.679688 Z M 22.015625 85 L 23.292969 89.582031 C 23.929688 88.929688 24.722656 88.035156 25.675781 86.902344 C 26.617188 85.785156 27.09375 84.957031 27.09375 84.449219 C 27.09375 84.257812 27.011719 84.144531 26.851562 84.113281 C 26.382812 84.011719 25.925781 83.960938 25.472656 83.960938 C 24.101562 83.960938 22.957031 84.308594 22.015625 85 Z M 22.015625 85 " fill-opacity="1" fill-rule="nonzero"/><g clip-path="url(#94e30e1b24)"><path stroke-linecap="butt" transform="matrix(0.101355, 0, 0, 0.101846, -1712.011639, -2965.524572)" fill="none" stroke-linejoin="miter" d="M 17009.703737 29909.786332 C 17021.998051 29905.68242 17033.598643 29901.885342 17044.389891 29898.510161 C 17055.296759 29894.981563 17066.70465 29891.683092 17078.690643 29888.614746 C 17090.715176 29885.508045 17102.200147 29883.091723 17113.184096 29881.212361 C 17121.585853 29879.793251 17130.295932 29879.102873 17139.083091 29879.102873 C 17153.882517 29879.102873 17163.51756 29879.486417 17168.10384 29880.291858 C 17175.002531 29881.595905 17181.5929 29883.782101 17187.682247 29886.697029 C 17193.887214 29889.688667 17199.398459 29893.600808 17204.21598 29898.510161 C 17208.994962 29903.496223 17213.003139 29909.287726 17216.009273 29915.999732 C 17217.204018 29918.799598 17217.897741 29921.714527 17217.897741 29924.706164 C 17217.897741 29936.097398 17211.615693 29950.096726 17199.205758 29966.819211 C 17186.680202 29983.503341 17174.193187 29998.116339 17161.590551 30010.504785 C 17149.103536 30022.893231 17139.699734 30031.791434 17133.494766 30037.199394 L 17160.896828 30133.5071 L 17121.007751 30162.311196 L 17050.90318 29962.293401 C 17050.710479 29962.293401 17049.785515 29963.213904 17048.012667 29965.208329 C 17046.316899 29967.087691 17044.004489 29969.619076 17041.191056 29972.687422 C 17038.416164 29975.794122 17036.681856 29977.711839 17035.988133 29978.402216 C 17035.679812 29978.402216 17034.716308 29976.21602 17032.982 29971.881981 C 17031.286232 29967.509589 17029.089443 29961.411251 17026.31455 29953.586969 C 17023.501118 29945.801042 17020.302284 29937.209673 17016.795128 29927.697801 C 17013.287973 29918.185929 17010.898482 29912.202654 17009.703737 29909.786332 Z M 17108.405115 29952.206214 L 17121.007751 29997.195835 C 17127.289799 29990.790663 17135.113454 29982.007523 17144.517255 29970.884769 C 17153.805436 29959.915433 17158.507337 29951.784316 17158.507337 29946.798254 C 17158.507337 29944.918892 17157.697994 29943.806617 17156.117847 29943.499782 C 17151.493026 29942.50257 17146.983826 29942.003964 17142.513166 29942.003964 C 17128.985566 29942.003964 17117.693296 29945.417498 17108.405115 29952.206214 Z M 17108.405115 29952.206214 " stroke="#395faa" stroke-width="14.58" stroke-opacity="1" stroke-miterlimit="2"/></g><path fill="#1d2c5e" d="M 46.585938 82.207031 C 48.550781 82.207031 50.210938 82.617188 51.558594 83.4375 C 52.90625 84.257812 53.96875 85.359375 54.746094 86.734375 C 55.523438 88.117188 56.066406 89.601562 56.367188 91.195312 C 56.683594 92.78125 56.832031 94.441406 56.832031 96.164062 L 56.832031 96.964844 C 56.777344 98.703125 56.246094 100.664062 55.238281 102.839844 C 54.234375 105.027344 52.867188 106.863281 51.152344 108.371094 C 49.433594 109.871094 47.546875 110.625 45.484375 110.625 C 43.445312 110.625 41.671875 110.140625 40.152344 109.164062 C 38.625 108.199219 37.429688 106.671875 36.558594 104.597656 C 35.6875 102.515625 35.203125 99.878906 35.097656 96.699219 C 35.097656 95.015625 35.257812 93.355469 35.570312 91.710938 C 35.882812 90.066406 36.464844 88.53125 37.308594 87.105469 C 38.144531 85.671875 39.328125 84.507812 40.855469 83.609375 C 42.394531 82.703125 44.300781 82.234375 46.585938 82.207031 Z M 45.894531 91.253906 C 44.964844 91.253906 44.234375 91.546875 43.683594 92.140625 C 43.125 92.742188 42.734375 93.476562 42.507812 94.375 C 42.28125 95.265625 42.15625 96.171875 42.15625 97.097656 C 42.15625 97.855469 42.308594 98.578125 42.601562 99.277344 C 42.894531 99.984375 43.332031 100.566406 43.921875 101.023438 C 44.519531 101.484375 45.222656 101.714844 46.046875 101.714844 C 46.957031 101.597656 47.6875 101.367188 48.246094 101.015625 C 48.808594 100.664062 49.234375 100.136719 49.527344 99.4375 C 49.832031 98.742188 50.003906 97.871094 50.050781 96.832031 C 50.050781 95.148438 49.6875 93.820312 48.96875 92.839844 C 48.246094 91.84375 47.222656 91.320312 45.894531 91.253906 Z M 45.894531 91.253906 " fill-opacity="1" fill-rule="nonzero"/><g clip-path="url(#ad81b3197e)"><path stroke-linecap="butt" transform="matrix(0.0948779, 0, 0, 0.0955305, -4151.760683, -2883.902932)" fill="none" stroke-linejoin="round" d="M 44249.989143 31048.814016 C 44270.698323 31048.814016 44288.196139 31053.107473 44302.400248 31061.694386 C 44316.604358 31070.2813 44327.80296 31081.812298 44335.996055 31096.205601 C 44344.18915 31110.680684 44349.911965 31126.218909 44353.082157 31142.902056 C 44356.417035 31159.503422 44357.981546 31176.8817 44357.981546 31194.914219 L 44357.981546 31203.296682 C 44357.405147 31221.492761 44351.805846 31242.019574 44341.183642 31264.79534 C 44330.60261 31287.693777 44316.192644 31306.912107 44298.11843 31322.695672 C 44280.003044 31338.397457 44260.117291 31346.28924 44238.378828 31346.28924 C 44216.887393 31346.28924 44198.195608 31341.218872 44182.179961 31330.996356 C 44166.08197 31320.89651 44153.483543 31304.908494 44144.302336 31283.195869 C 44135.121129 31261.401465 44130.015884 31233.800671 44128.904258 31200.516158 C 44128.904258 31182.89254 44130.592282 31165.514262 44133.885989 31148.299544 C 44137.179695 31131.084827 44143.314224 31115.015031 44152.207231 31100.090158 C 44161.017896 31085.083504 44173.49281 31072.898264 44189.5908 31063.493549 C 44205.812305 31054.007054 44225.903914 31049.100246 44249.989143 31048.814016 Z M 44242.701818 31143.515407 C 44232.903041 31143.515407 44225.204002 31146.582162 44219.398844 31152.797452 C 44213.511344 31159.094522 44209.394211 31166.781854 44207.006273 31176.186569 C 44204.618336 31185.509504 44203.300854 31194.995999 44203.300854 31204.686944 C 44203.300854 31212.619617 44204.906535 31220.184279 44207.994385 31227.503601 C 44211.082235 31234.904702 44215.693424 31240.997322 44221.910295 31245.78146 C 44228.209509 31250.606487 44235.620349 31253.019001 44244.3075 31253.019001 C 44253.90042 31251.792299 44261.599459 31249.379786 44267.486959 31245.69968 C 44273.415631 31242.019574 44277.903306 31236.499415 44280.991156 31229.180093 C 44284.20252 31221.901662 44286.014058 31212.783177 44286.508114 31201.90642 C 44286.508114 31184.282802 44282.67918 31170.38018 44275.103655 31160.116773 C 44267.486959 31149.689807 44256.70007 31144.210538 44242.701818 31143.515407 Z M 44242.701818 31143.515407 " stroke="#1d2c5e" stroke-width="14.58" stroke-opacity="1" stroke-miterlimit="2"/></g><path fill="#ffcb05" d="M 46.652344 78.394531 C 48.617188 78.394531 50.277344 78.804688 51.625 79.625 C 52.972656 80.449219 54.035156 81.546875 54.8125 82.921875 C 55.589844 84.308594 56.132812 85.789062 56.4375 87.382812 C 56.75 88.96875 56.898438 90.632812 56.898438 92.351562 L 56.898438 93.152344 C 56.84375 94.890625 56.3125 96.851562 55.304688 99.027344 C 54.300781 101.214844 52.933594 103.050781 51.21875 104.558594 C 49.5 106.058594 47.613281 106.816406 45.554688 106.816406 C 43.511719 106.816406 41.738281 106.328125 40.21875 105.351562 C 38.695312 104.386719 37.496094 102.859375 36.625 100.785156 C 35.753906 98.703125 35.269531 96.066406 35.164062 92.886719 C 35.164062 91.203125 35.324219 89.542969 35.636719 87.898438 C 35.953125 86.257812 36.53125 84.71875 37.375 83.292969 C 38.210938 81.863281 39.394531 80.695312 40.921875 79.796875 C 42.460938 78.890625 44.367188 78.421875 46.652344 78.394531 Z M 45.960938 87.441406 C 45.03125 87.441406 44.300781 87.738281 43.75 88.328125 C 43.191406 88.929688 42.800781 89.667969 42.574219 90.566406 C 42.347656 91.453125 42.222656 92.359375 42.222656 93.289062 C 42.222656 94.042969 42.375 94.769531 42.667969 95.464844 C 42.964844 96.171875 43.398438 96.753906 43.988281 97.214844 C 44.585938 97.671875 45.289062 97.902344 46.113281 97.902344 C 47.023438 97.785156 47.753906 97.558594 48.3125 97.203125 C 48.875 96.851562 49.300781 96.324219 49.59375 95.628906 C 49.898438 94.929688 50.070312 94.0625 50.117188 93.019531 C 50.117188 91.339844 49.757812 90.011719 49.035156 89.027344 C 48.3125 88.03125 47.289062 87.507812 45.960938 87.441406 Z M 45.960938 87.441406 " fill-opacity="1" fill-rule="nonzero"/><g clip-path="url(#9b1abcb67f)"><path stroke-linecap="butt" transform="matrix(0.0948779, 0, 0, 0.0955305, -4151.694141, -2887.714504)" fill="none" stroke-linejoin="round" d="M 44249.987707 31048.804296 C 44270.696886 31048.804296 44288.194702 31053.097753 44302.398812 31061.684667 C 44316.602921 31070.312471 44327.801523 31081.802579 44335.994618 31096.195882 C 44344.187713 31110.711855 44349.910528 31126.20919 44353.121892 31142.892336 C 44356.415598 31159.493703 44357.980109 31176.91287 44357.980109 31194.904499 L 44357.980109 31203.286963 C 44357.40371 31221.483042 44351.804409 31242.009854 44341.182206 31264.785621 C 44330.601174 31287.684057 44316.191208 31306.902388 44298.116993 31322.685953 C 44280.001607 31338.387738 44260.115854 31346.320411 44238.418563 31346.320411 C 44216.885956 31346.320411 44198.194172 31341.209152 44182.178524 31330.986636 C 44166.121705 31320.88679 44153.482106 31304.898774 44144.300899 31283.18615 C 44135.119692 31261.391745 44130.014447 31233.790951 44128.902821 31200.506438 C 44128.902821 31182.88282 44130.590846 31165.504542 44133.884552 31148.289825 C 44137.21943 31131.115997 44143.312787 31115.005312 44152.205795 31100.080438 C 44161.01646 31085.114674 44173.491373 31072.888545 44189.589364 31063.48383 C 44205.810868 31053.997335 44225.902478 31049.090527 44249.987707 31048.804296 Z M 44242.700381 31143.505687 C 44232.901604 31143.505687 44225.202565 31146.613332 44219.397408 31152.787732 C 44213.509907 31159.084802 44209.392774 31166.813024 44207.004837 31176.217739 C 44204.6169 31185.499784 44203.299417 31194.986279 44203.299417 31204.718115 C 44203.299417 31212.609897 44204.905099 31220.215449 44207.992949 31227.493881 C 44211.12197 31234.894983 44215.691988 31240.987603 44221.908859 31245.81263 C 44228.208072 31250.596768 44235.618912 31253.009282 44244.306063 31253.009282 C 44253.898983 31251.78258 44261.598022 31249.410956 44267.485523 31245.68996 C 44273.414194 31242.009854 44277.901869 31236.489695 44280.989719 31229.211264 C 44284.201083 31221.891942 44286.012622 31212.814348 44286.506678 31201.8967 C 44286.506678 31184.313972 44282.718915 31170.41135 44275.102219 31160.107054 C 44267.485523 31149.680087 44256.698634 31144.200818 44242.700381 31143.505687 Z M 44242.700381 31143.505687 " stroke="#395faa" stroke-width="14.58" stroke-opacity="1" stroke-miterlimit="2"/></g><g clip-path="url(#001795ad73)"><path fill="#1d2c5e" d="M 59.667969 82.226562 L 66.417969 79.394531 L 66.417969 83.75 L 70.007812 79.933594 L 74.582031 83.75 L 68.058594 93.222656 L 81.667969 103.691406 L 81.988281 109.027344 L 68.164062 101.503906 L 68.492188 108.042969 L 62.167969 108.152344 L 60.964844 85.058594 L 59.011719 85.492188 Z M 59.667969 82.226562 " fill-opacity="1" fill-rule="nonzero"/></g><g clip-path="url(#24020137ed)"><path stroke-linecap="butt" transform="matrix(0.0871309, 0, 0, 0.0871558, -958.091301, -2513.118139)" fill="none" stroke-linejoin="miter" d="M 11680.811937 29778.211926 L 11758.281612 29745.718044 L 11758.281612 29795.691394 L 11799.482209 29751.903086 L 11851.980468 29795.691394 L 11777.111047 29904.37783 L 11933.305694 30024.493149 L 11936.981917 30085.716106 L 11778.321511 29999.394426 L 11782.087398 30074.421681 L 11709.504409 30075.676617 L 11695.696157 29810.705809 L 11673.280162 29815.680735 Z M 11680.811937 29778.211926 " stroke="#1d2c5e" stroke-width="14.58" stroke-opacity="1" stroke-miterlimit="2"/></g><path fill="#ffcb05" d="M 59.40625 79.75 L 66.15625 76.917969 L 66.15625 81.277344 L 69.746094 77.457031 L 74.324219 81.277344 L 67.796875 90.75 L 81.40625 101.21875 L 81.726562 106.550781 L 67.902344 99.03125 L 68.230469 105.566406 L 61.90625 105.679688 L 60.703125 82.582031 L 58.753906 83.019531 Z M 59.40625 79.75 " fill-opacity="1" fill-rule="nonzero"/><g clip-path="url(#b59086d246)"><path stroke-linecap="butt" transform="matrix(0.0871309, 0, 0, 0.0871558, -958.352756, -2515.593091)" fill="none" stroke-linejoin="miter" d="M 11680.808907 29778.193447 L 11758.278582 29745.699564 L 11758.278582 29795.717734 L 11799.47918 29751.884607 L 11852.02227 29795.717734 L 11777.108018 29904.40417 L 11933.302665 30024.519489 L 11936.978888 30085.697627 L 11778.318481 29999.420765 L 11782.084368 30074.403201 L 11709.501379 30075.702957 L 11695.693127 29810.68733 L 11673.321965 29815.707075 Z M 11680.808907 29778.193447 " stroke="#395faa" stroke-width="14.58" stroke-opacity="1" stroke-miterlimit="2"/></g><g clip-path="url(#f2b42b4846)"><path fill="#1d2c5e" d="M 92.207031 103.296875 L 106.105469 103.957031 L 106 109.785156 L 86.671875 108.796875 L 85.597656 88.542969 L 83.742188 88.886719 L 84.074219 82.507812 L 100.132812 80.078125 L 100.460938 85.914062 L 91.347656 87.445312 L 91.558594 91.632812 L 100.570312 90.09375 L 100.898438 94.925781 L 91.785156 96.6875 Z M 92.207031 103.296875 " fill-opacity="1" fill-rule="nonzero"/></g><g clip-path="url(#cb28a57674)"><path stroke-linecap="butt" transform="matrix(0.0868196, 0, 0, 0.0880194, -337.341805, -2542.540932)" fill="none" stroke-linejoin="miter" d="M 4947.601507 30059.704912 L 5107.685588 30067.205033 L 5106.470784 30133.419113 L 4883.84683 30122.191122 L 4871.473833 29892.083879 L 4850.102294 29895.989267 L 4853.926675 29823.517689 L 5038.891726 29795.913696 L 5042.671114 29862.216535 L 4937.70311 29879.613264 L 4940.132717 29927.187992 L 5043.93091 29909.702505 L 5047.710298 29964.599835 L 4942.742294 29984.61495 Z M 4947.601507 30059.704912 " stroke="#1d2c5e" stroke-width="14.58" stroke-opacity="1" stroke-miterlimit="2"/></g><path fill="#ffcb05" d="M 91.953125 100.789062 L 105.851562 101.449219 L 105.746094 107.273438 L 86.417969 106.289062 L 85.34375 86.035156 L 83.488281 86.378906 L 83.820312 79.996094 L 99.875 77.566406 L 100.207031 83.402344 L 91.09375 84.933594 L 91.304688 89.125 L 100.3125 87.585938 L 100.644531 92.417969 L 91.53125 94.175781 Z M 91.953125 100.789062 " fill-opacity="1" fill-rule="nonzero"/><g clip-path="url(#93f6fdafa5)"><path stroke-linecap="butt" transform="matrix(0.0868196, 0, 0, 0.0880194, -337.597033, -2545.049538)" fill="none" stroke-linejoin="miter" d="M 4947.616743 30059.713929 L 5107.700823 30067.21405 L 5106.48602 30133.383751 L 4883.862065 30122.200139 L 4871.489069 29892.092896 L 4850.117529 29895.998284 L 4853.94191 29823.482327 L 5038.861969 29795.878333 L 5042.68635 29862.181173 L 4937.718345 29879.577902 L 4940.147952 29927.197009 L 5043.901153 29909.711522 L 5047.725534 29964.608852 L 4942.757529 29984.579587 Z M 4947.616743 30059.713929 " stroke="#395faa" stroke-width="14.58" stroke-opacity="1" stroke-miterlimit="2"/></g><path fill="#1d2c5e" d="M 117.058594 87.222656 C 116.195312 86.921875 115.507812 86.765625 115 86.765625 C 114.292969 86.765625 113.613281 87.003906 112.960938 87.484375 L 113.738281 101.921875 C 115.496094 101.152344 116.664062 100.390625 117.253906 99.632812 C 117.839844 98.875 118.195312 98.25 118.320312 97.75 C 118.421875 97.519531 118.53125 96.9375 118.636719 96.023438 C 118.746094 95.097656 118.800781 94.078125 118.800781 92.945312 C 118.800781 91.457031 118.667969 90.199219 118.40625 89.136719 C 118.140625 88.085938 117.691406 87.453125 117.058594 87.222656 Z M 123.179688 84.371094 C 123.667969 85.359375 124.074219 86.390625 124.402344 87.460938 C 124.730469 88.523438 124.96875 89.585938 125.117188 90.636719 C 125.269531 91.695312 125.34375 92.734375 125.34375 93.765625 C 125.34375 95.605469 125.101562 97.375 124.621094 99.070312 C 124.136719 100.753906 123.445312 102.273438 122.539062 103.617188 C 121.636719 104.957031 120.542969 106.039062 119.261719 106.871094 C 117.980469 107.714844 116.558594 108.222656 115 108.410156 L 108.503906 109.585938 L 106.324219 89.179688 C 106.25 89.179688 105.996094 89.460938 105.5625 90.019531 C 105.125 90.582031 104.871094 90.863281 104.796875 90.863281 C 104.570312 90.707031 104.371094 90.25 104.199219 89.511719 C 104.027344 88.773438 103.78125 87.617188 103.464844 86.046875 C 103.148438 84.488281 102.914062 83.53125 102.757812 83.199219 C 105.15625 82.40625 107.414062 81.761719 109.535156 81.261719 C 111.652344 80.773438 113.625 80.535156 115.453125 80.535156 C 119.378906 80.535156 121.953125 81.8125 123.179688 84.371094 Z M 123.179688 84.371094 " fill-opacity="1" fill-rule="nonzero"/><g clip-path="url(#c82561239d)"><path stroke-linecap="butt" transform="matrix(0.102088, 0, 0, 0.104018, -269.797368, -3025.235737)" fill="none" stroke-linejoin="miter" d="M 3789.443419 29922.29643 C 3780.987157 29919.404804 3774.252758 29917.902661 3769.278486 29917.902661 C 3762.352769 29917.902661 3755.694898 29920.19343 3749.304871 29924.81252 L 3756.919334 30063.61057 C 3774.137967 30056.212514 3785.578793 30048.889565 3791.356601 30041.604169 C 3797.096145 30034.318774 3800.578136 30028.3102 3801.802572 30023.503342 C 3802.797426 30021.28768 3803.868808 30015.692196 3804.901926 30006.904657 C 3805.973307 29998.004457 3806.508998 29988.202972 3806.508998 29977.312432 C 3806.508998 29963.004516 3805.208035 29950.912262 3802.644372 29940.697687 C 3800.042445 29930.595773 3795.642127 29924.512092 3789.443419 29922.29643 Z M 3849.402527 29894.882313 C 3854.185481 29904.38337 3858.164899 29914.297517 3861.379044 29924.587199 C 3864.593188 29934.801774 3866.92727 29945.016349 3868.381288 29955.118263 C 3869.873569 29965.295285 3870.600578 29975.284539 3870.600578 29985.198685 C 3870.600578 30002.886423 3868.228233 30019.898197 3863.521807 30036.196453 C 3858.777117 30052.382048 3852.004454 30066.990393 3843.127292 30079.908826 C 3834.288394 30092.789706 3823.574577 30103.192049 3811.024107 30111.190962 C 3798.473636 30119.302537 3784.545675 30124.184503 3769.278486 30125.987075 L 3705.64607 30137.290704 L 3684.294964 29941.110776 C 3683.567955 29941.110776 3681.080819 29943.814634 3676.833556 29949.184797 C 3672.54803 29954.592513 3670.060894 29957.296371 3669.333885 29957.296371 C 3667.114594 29955.794228 3665.163149 29951.400459 3663.479549 29944.302831 C 3661.79595 29937.205203 3659.385341 29926.089342 3656.285987 29910.992801 C 3653.186633 29896.008921 3650.890815 29886.808293 3649.36027 29883.616238 C 3672.854139 29875.99286 3694.970517 29869.796519 3715.747668 29864.98966 C 3736.486555 29860.295462 3755.809689 29858.004693 3773.717067 29858.004693 C 3812.172015 29858.004693 3837.387748 29870.284715 3849.402527 29894.882313 Z M 3849.402527 29894.882313 " stroke="#1d2c5e" stroke-width="14.58" stroke-opacity="1" stroke-miterlimit="2"/></g><path fill="#ffcb05" d="M 116.757812 84.257812 C 115.894531 83.957031 115.210938 83.800781 114.699219 83.800781 C 113.996094 83.800781 113.316406 84.039062 112.660156 84.519531 L 113.4375 98.957031 C 115.195312 98.1875 116.363281 97.425781 116.953125 96.667969 C 117.539062 95.910156 117.894531 95.285156 118.019531 94.785156 C 118.121094 94.554688 118.230469 93.972656 118.339844 93.058594 C 118.445312 92.132812 118.5 91.113281 118.5 89.980469 C 118.5 88.492188 118.367188 87.234375 118.105469 86.171875 C 117.839844 85.121094 117.390625 84.488281 116.757812 84.257812 Z M 122.878906 81.410156 C 123.367188 82.398438 123.773438 83.425781 124.101562 84.496094 C 124.429688 85.558594 124.667969 86.621094 124.816406 87.671875 C 124.96875 88.730469 125.042969 89.773438 125.042969 90.800781 C 125.042969 92.640625 124.800781 94.410156 124.320312 96.105469 C 123.835938 97.792969 123.144531 99.308594 122.238281 100.652344 C 121.335938 101.992188 120.242188 103.074219 118.960938 103.90625 C 117.679688 104.75 116.257812 105.257812 114.699219 105.445312 L 108.207031 106.621094 L 106.023438 86.214844 C 105.949219 86.214844 105.695312 86.496094 105.261719 87.054688 C 104.824219 87.617188 104.570312 87.898438 104.496094 87.898438 C 104.269531 87.742188 104.070312 87.285156 103.898438 86.546875 C 103.726562 85.808594 103.484375 84.652344 103.167969 83.082031 C 102.847656 81.523438 102.613281 80.566406 102.457031 80.234375 C 104.855469 79.441406 107.113281 78.796875 109.234375 78.296875 C 111.351562 77.808594 113.324219 77.570312 115.152344 77.570312 C 119.078125 77.570312 121.652344 78.851562 122.878906 81.410156 Z M 122.878906 81.410156 " fill-opacity="1" fill-rule="nonzero"/><g clip-path="url(#c8e4bd8f54)"><path stroke-linecap="butt" transform="matrix(0.102088, 0, 0, 0.104018, -270.097506, -3028.20016)" fill="none" stroke-linejoin="miter" d="M 3789.437118 29922.292382 C 3780.980856 29919.400756 3774.284721 29917.898612 3769.272185 29917.898612 C 3762.384732 29917.898612 3755.72686 29920.189381 3749.298571 29924.808472 L 3756.913033 30063.606522 C 3774.131666 30056.208465 3785.572492 30048.885516 3791.3503 30041.600121 C 3797.089844 30034.314725 3800.571835 30028.306152 3801.796271 30023.499293 C 3802.791125 30021.283631 3803.862507 30015.688147 3804.933888 30006.900608 C 3805.967006 29998.000409 3806.502697 29988.198923 3806.502697 29977.308384 C 3806.502697 29963.000468 3805.201734 29950.908213 3802.638071 29940.693638 C 3800.036144 29930.591724 3795.635826 29924.508043 3789.437118 29922.292382 Z M 3849.396226 29894.915818 C 3854.17918 29904.416875 3858.158598 29914.293468 3861.372743 29924.58315 C 3864.586888 29934.797725 3866.920969 29945.012301 3868.374987 29955.114215 C 3869.867268 29965.291236 3870.594277 29975.318044 3870.594277 29985.194636 C 3870.594277 30002.882375 3868.221932 30019.894149 3863.515506 30036.192405 C 3858.770816 30052.415553 3851.998153 30066.986344 3843.120991 30079.904777 C 3834.282093 30092.785657 3823.568276 30103.188 3811.017806 30111.186914 C 3798.467335 30119.298488 3784.539374 30124.180454 3769.272185 30125.983026 L 3705.678032 30137.286655 L 3684.288663 29941.106728 C 3683.561654 29941.106728 3681.074518 29943.810586 3676.827255 29949.180748 C 3672.541729 29954.588465 3670.054593 29957.292323 3669.327584 29957.292323 C 3667.108293 29955.790179 3665.156848 29951.39641 3663.473249 29944.298782 C 3661.789649 29937.201155 3659.417304 29926.085294 3656.31795 29910.988753 C 3653.180332 29896.004872 3650.884514 29886.804244 3649.353969 29883.612189 C 3672.847838 29875.988812 3694.964216 29869.79247 3715.741367 29864.985611 C 3736.480255 29860.291413 3755.803388 29858.000644 3773.710766 29858.000644 C 3812.165715 29858.000644 3837.381447 29870.31822 3849.396226 29894.915818 Z M 3849.396226 29894.915818 " stroke="#395faa" stroke-width="14.58" stroke-opacity="1" stroke-miterlimit="2"/></g><path fill="#1d2c5e" d="M 135.757812 102.425781 L 149.652344 103.085938 L 149.546875 108.914062 L 130.21875 107.929688 L 129.144531 87.675781 L 127.292969 88.019531 L 127.625 81.636719 L 143.679688 79.207031 L 144.011719 85.042969 L 134.894531 86.574219 L 135.109375 90.765625 L 144.117188 89.222656 L 144.449219 94.058594 L 135.332031 95.816406 Z M 135.757812 102.425781 " fill-opacity="1" fill-rule="nonzero"/><g clip-path="url(#986352a042)"><path stroke-linecap="butt" transform="matrix(0.0868196, 0, 0, 0.0880194, -293.79364, -2543.410006)" fill="none" stroke-linejoin="miter" d="M 4947.631645 30059.68197 L 5107.670733 30067.18209 L 5106.45593 30133.396171 L 4883.831975 30122.21256 L 4871.458979 29892.105316 L 4850.132432 29896.010704 L 4853.956813 29823.494747 L 5038.876872 29795.890754 L 5042.701252 29862.193593 L 4937.688255 29879.590322 L 4940.162855 29927.20943 L 5043.916056 29909.679562 L 5047.740437 29964.621273 L 4942.727439 29984.592007 Z M 4947.631645 30059.68197 " stroke="#1d2c5e" stroke-width="14.58" stroke-opacity="1" stroke-miterlimit="2"/></g><path fill="#ffcb05" d="M 135.5 99.917969 L 149.398438 100.578125 L 149.292969 106.40625 L 129.964844 105.417969 L 128.890625 85.167969 L 127.035156 85.511719 L 127.367188 79.128906 L 143.425781 76.699219 L 143.753906 82.535156 L 134.640625 84.066406 L 134.851562 88.257812 L 143.863281 86.714844 L 144.191406 91.546875 L 135.078125 93.308594 Z M 135.5 99.917969 " fill-opacity="1" fill-rule="nonzero"/><g clip-path="url(#e16b5362bd)"><path stroke-linecap="butt" transform="matrix(0.0868196, 0, 0, 0.0880194, -294.048869, -2545.918636)" fill="none" stroke-linejoin="miter" d="M 4947.601888 30059.691259 L 5107.685968 30067.191379 L 5106.471165 30133.40546 L 4883.847211 30122.177469 L 4871.474214 29892.114605 L 4850.102674 29896.019993 L 4853.927055 29823.504036 L 5038.892107 29795.900043 L 5042.671495 29862.202882 L 4937.703491 29879.599611 L 4940.133097 29927.218719 L 5043.931291 29909.688851 L 5047.710679 29964.586182 L 4942.742675 29984.601296 Z M 4947.601888 30059.691259 " stroke="#395faa" stroke-width="14.58" stroke-opacity="1" stroke-miterlimit="2"/></g><g clip-path="url(#030c326c2e)"><path fill="#1d2c5e" d="M 163.5 100.414062 L 158.269531 109.589844 L 151.246094 109.804688 L 160.933594 93.847656 L 152.796875 80.039062 L 160.390625 81.160156 L 164.167969 87.738281 L 167.839844 81.160156 L 175.308594 80.828125 L 167.402344 94.328125 L 174.425781 108.566406 L 166.726562 106.753906 Z M 163.5 100.414062 " fill-opacity="1" fill-rule="nonzero"/></g><g clip-path="url(#e1aefc315a)"><path stroke-linecap="butt" transform="matrix(0.0891106, 0, 0, 0.0905615, -2158.410763, -2621.710048)" fill="none" stroke-linejoin="miter" d="M 26056.491763 30058.291039 L 25997.795422 30159.612026 L 25918.978378 30161.984378 L 26027.691541 29985.783342 L 25936.381251 29833.305823 L 26021.598344 29845.685186 L 26063.98771 29918.322284 L 26105.193506 29845.685186 L 26189.007848 29842.018824 L 26100.283879 29991.088783 L 26179.100923 30148.311005 L 26092.70026 30128.296983 Z M 26056.491763 30058.291039 " stroke="#1d2c5e" stroke-width="14.58" stroke-opacity="1" stroke-miterlimit="2"/></g><g clip-path="url(#6ec2270548)"><path fill="#ffcb05" d="M 163.242188 97.84375 L 158.011719 107.015625 L 150.988281 107.234375 L 160.675781 91.277344 L 152.539062 77.464844 L 160.132812 78.589844 L 163.910156 85.164062 L 167.582031 78.589844 L 175.050781 78.253906 L 167.144531 91.757812 L 174.167969 105.992188 L 166.46875 104.183594 Z M 163.242188 97.84375 " fill-opacity="1" fill-rule="nonzero"/></g><g clip-path="url(#5635627ae1)"><path stroke-linecap="butt" transform="matrix(0.0891106, 0, 0, 0.0905615, -2158.669298, -2624.282013)" fill="none" stroke-linejoin="miter" d="M 26056.499865 30058.309288 L 25997.803524 30159.587142 L 25918.986481 30162.002628 L 26027.699644 29985.801591 L 25936.389354 29833.280939 L 26021.606447 29845.703435 L 26063.995813 29918.2974 L 26105.201609 29845.703435 L 26189.015951 29841.99394 L 26100.291982 29991.107032 L 26179.109026 30148.286121 L 26092.708363 30128.315232 Z M 26056.499865 30058.309288 " stroke="#395faa" stroke-width="14.58" stroke-opacity="1" stroke-miterlimit="2"/></g></svg>